<svg xmlns="http://www.w3.org/2000/svg" xmlns:xlink="http://www.w3.org/1999/xlink" width="500" zoomAndPan="magnify" viewBox="0 0 375 374.999991" height="500" preserveAspectRatio="xMidYMid meet" version="1.2"><defs><clipPath id="2d0dde735b"><path d="M 11.121094 167.453125 L 353.335938 167.453125 L 353.335938 207.15625 L 11.121094 207.15625 Z M 11.121094 167.453125 "/></clipPath></defs><g id="ddd182dfec"><rect x="0" width="375" y="0" height="374.999991" style="fill:#ffffff;fill-opacity:1;stroke:none;"/><rect x="0" width="375" y="0" height="374.999991" style="fill:#c5b3b3;fill-opacity:1;stroke:none;"/><g style="fill:#ffffff;fill-opacity:1;"><g transform="translate(165.943934, 268.883263)"><path style="stroke:none" d="M 95.953125 1.375 C 80.035156 1.375 65.6875 -2.144531 52.90625 -9.1875 C 40.132812 -16.226562 30.113281 -25.984375 22.84375 -38.453125 C 15.570312 -50.921875 11.9375 -64.882812 11.9375 -80.34375 C 11.9375 -95.800781 15.570312 -109.765625 22.84375 -122.234375 C 30.113281 -134.710938 40.175781 -144.472656 53.03125 -151.515625 C 65.882812 -158.554688 80.269531 -162.078125 96.1875 -162.078125 C 108.125 -162.078125 119.140625 -160.085938 129.234375 -156.109375 C 139.335938 -152.128906 147.910156 -146.3125 154.953125 -138.65625 L 144.171875 -127.859375 C 131.617188 -140.566406 115.773438 -146.921875 96.640625 -146.921875 C 83.941406 -146.921875 72.390625 -144.007812 61.984375 -138.1875 C 51.578125 -132.375 43.425781 -124.414062 37.53125 -114.3125 C 31.644531 -104.21875 28.703125 -92.894531 28.703125 -80.34375 C 28.703125 -67.789062 31.644531 -56.460938 37.53125 -46.359375 C 43.425781 -36.265625 51.578125 -28.3125 61.984375 -22.5 C 72.390625 -16.6875 83.941406 -13.78125 96.640625 -13.78125 C 115.929688 -13.78125 131.773438 -20.207031 144.171875 -33.0625 L 154.953125 -22.265625 C 147.910156 -14.617188 139.300781 -8.765625 129.125 -4.703125 C 118.945312 -0.648438 107.890625 1.375 95.953125 1.375 Z M 95.953125 1.375 "/></g></g><g style="fill:#ffffff;fill-opacity:1;"><g transform="translate(29.02018, 268.756244)"><path style="stroke:none" d="M 95.953125 1.375 C 80.035156 1.375 65.6875 -2.144531 52.90625 -9.1875 C 40.132812 -16.226562 30.113281 -25.984375 22.84375 -38.453125 C 15.570312 -50.921875 11.9375 -64.882812 11.9375 -80.34375 C 11.9375 -95.800781 15.570312 -109.765625 22.84375 -122.234375 C 30.113281 -134.710938 40.175781 -144.472656 53.03125 -151.515625 C 65.882812 -158.554688 80.269531 -162.078125 96.1875 -162.078125 C 108.125 -162.078125 119.140625 -160.085938 129.234375 -156.109375 C 139.335938 -152.128906 147.910156 -146.3125 154.953125 -138.65625 L 144.171875 -127.859375 C 131.617188 -140.566406 115.773438 -146.921875 96.640625 -146.921875 C 83.941406 -146.921875 72.390625 -144.007812 61.984375 -138.1875 C 51.578125 -132.375 43.425781 -124.414062 37.53125 -114.3125 C 31.644531 -104.21875 28.703125 -92.894531 28.703125 -80.34375 C 28.703125 -67.789062 31.644531 -56.460938 37.53125 -46.359375 C 43.425781 -36.265625 51.578125 -28.3125 61.984375 -22.5 C 72.390625 -16.6875 83.941406 -13.78125 96.640625 -13.78125 C 115.929688 -13.78125 131.773438 -20.207031 144.171875 -33.0625 L 154.953125 -22.265625 C 147.910156 -14.617188 139.300781 -8.765625 129.125 -4.703125 C 118.945312 -0.648438 107.890625 1.375 95.953125 1.375 Z M 95.953125 1.375 "/></g></g><g clip-rule="nonzero" clip-path="url(#2d0dde735b)"><path style=" stroke:none;fill-rule:nonzero;fill:#c5b3b3;fill-opacity:1;" d="M 11.121094 167.453125 L 353.410156 167.453125 L 353.410156 207.15625 L 11.121094 207.15625 Z M 11.121094 167.453125 "/></g><g style="fill:#ffffff;fill-opacity:1;"><g transform="translate(50.793817, 192.336139)"><path style="stroke:none" d="M 5.765625 0.171875 C 4.785156 0.171875 3.894531 -0.0390625 3.09375 -0.46875 C 2.300781 -0.90625 1.675781 -1.5 1.21875 -2.25 C 0.757812 -3.007812 0.53125 -3.867188 0.53125 -4.828125 C 0.53125 -5.785156 0.757812 -6.644531 1.21875 -7.40625 C 1.675781 -8.164062 2.300781 -8.757812 3.09375 -9.1875 C 3.894531 -9.613281 4.789062 -9.828125 5.78125 -9.828125 C 6.613281 -9.828125 7.367188 -9.675781 8.046875 -9.375 C 8.722656 -9.082031 9.289062 -8.660156 9.75 -8.109375 L 8.3125 -6.78125 C 7.664062 -7.539062 6.859375 -7.921875 5.890625 -7.921875 C 5.296875 -7.921875 4.765625 -7.789062 4.296875 -7.53125 C 3.828125 -7.269531 3.457031 -6.898438 3.1875 -6.421875 C 2.925781 -5.953125 2.796875 -5.421875 2.796875 -4.828125 C 2.796875 -4.234375 2.925781 -3.703125 3.1875 -3.234375 C 3.457031 -2.765625 3.828125 -2.394531 4.296875 -2.125 C 4.765625 -1.863281 5.296875 -1.734375 5.890625 -1.734375 C 6.859375 -1.734375 7.664062 -2.117188 8.3125 -2.890625 L 9.75 -1.5625 C 9.289062 -1 8.71875 -0.566406 8.03125 -0.265625 C 7.351562 0.0234375 6.597656 0.171875 5.765625 0.171875 Z M 5.765625 0.171875 "/></g></g><g style="fill:#ffffff;fill-opacity:1;"><g transform="translate(65.680268, 192.336139)"><path style="stroke:none" d="M 8.625 -1.796875 L 8.625 0 L 1.140625 0 L 1.140625 -9.65625 L 8.4375 -9.65625 L 8.4375 -7.859375 L 3.359375 -7.859375 L 3.359375 -5.765625 L 7.84375 -5.765625 L 7.84375 -4.03125 L 3.359375 -4.03125 L 3.359375 -1.796875 Z M 8.625 -1.796875 "/></g></g><g style="fill:#ffffff;fill-opacity:1;"><g transform="translate(79.711558, 192.336139)"><path style="stroke:none" d="M 5.765625 0.171875 C 4.785156 0.171875 3.894531 -0.0390625 3.09375 -0.46875 C 2.300781 -0.90625 1.675781 -1.5 1.21875 -2.25 C 0.757812 -3.007812 0.53125 -3.867188 0.53125 -4.828125 C 0.53125 -5.785156 0.757812 -6.644531 1.21875 -7.40625 C 1.675781 -8.164062 2.300781 -8.757812 3.09375 -9.1875 C 3.894531 -9.613281 4.789062 -9.828125 5.78125 -9.828125 C 6.613281 -9.828125 7.367188 -9.675781 8.046875 -9.375 C 8.722656 -9.082031 9.289062 -8.660156 9.75 -8.109375 L 8.3125 -6.78125 C 7.664062 -7.539062 6.859375 -7.921875 5.890625 -7.921875 C 5.296875 -7.921875 4.765625 -7.789062 4.296875 -7.53125 C 3.828125 -7.269531 3.457031 -6.898438 3.1875 -6.421875 C 2.925781 -5.953125 2.796875 -5.421875 2.796875 -4.828125 C 2.796875 -4.234375 2.925781 -3.703125 3.1875 -3.234375 C 3.457031 -2.765625 3.828125 -2.394531 4.296875 -2.125 C 4.765625 -1.863281 5.296875 -1.734375 5.890625 -1.734375 C 6.859375 -1.734375 7.664062 -2.117188 8.3125 -2.890625 L 9.75 -1.5625 C 9.289062 -1 8.71875 -0.566406 8.03125 -0.265625 C 7.351562 0.0234375 6.597656 0.171875 5.765625 0.171875 Z M 5.765625 0.171875 "/></g></g><g style="fill:#ffffff;fill-opacity:1;"><g transform="translate(94.598009, 192.336139)"><path style="stroke:none" d="M 1.140625 -9.65625 L 3.375 -9.65625 L 3.375 0 L 1.140625 0 Z M 1.140625 -9.65625 "/></g></g><g style="fill:#ffffff;fill-opacity:1;"><g transform="translate(103.898301, 192.336139)"><path style="stroke:none" d="M 1.140625 -9.65625 L 3.375 -9.65625 L 3.375 -1.828125 L 8.21875 -1.828125 L 8.21875 0 L 1.140625 0 Z M 1.140625 -9.65625 "/></g></g><g style="fill:#ffffff;fill-opacity:1;"><g transform="translate(117.005459, 192.336139)"><path style="stroke:none" d="M 1.140625 -9.65625 L 3.375 -9.65625 L 3.375 0 L 1.140625 0 Z M 1.140625 -9.65625 "/></g></g><g style="fill:#ffffff;fill-opacity:1;"><g transform="translate(126.305752, 192.336139)"><path style="stroke:none" d="M 7.5 -2.0625 L 3.015625 -2.0625 L 2.171875 0 L -0.125 0 L 4.1875 -9.65625 L 6.390625 -9.65625 L 10.703125 0 L 8.359375 0 Z M 6.796875 -3.765625 L 5.265625 -7.46875 L 3.734375 -3.765625 Z M 6.796875 -3.765625 "/></g></g><g style="fill:#ffffff;fill-opacity:1;"><g transform="translate(141.647379, 192.336139)"><path style="stroke:none" d=""/></g></g><g style="fill:#ffffff;fill-opacity:1;"><g transform="translate(150.32699, 192.336139)"><path style="stroke:none" d="M 1.140625 -9.65625 L 5.53125 -9.65625 C 6.582031 -9.65625 7.507812 -9.453125 8.3125 -9.046875 C 9.113281 -8.648438 9.738281 -8.085938 10.1875 -7.359375 C 10.632812 -6.640625 10.859375 -5.796875 10.859375 -4.828125 C 10.859375 -3.859375 10.632812 -3.007812 10.1875 -2.28125 C 9.738281 -1.5625 9.113281 -1 8.3125 -0.59375 C 7.507812 -0.195312 6.582031 0 5.53125 0 L 1.140625 0 Z M 5.421875 -1.828125 C 6.390625 -1.828125 7.160156 -2.097656 7.734375 -2.640625 C 8.304688 -3.179688 8.59375 -3.910156 8.59375 -4.828125 C 8.59375 -5.742188 8.304688 -6.472656 7.734375 -7.015625 C 7.160156 -7.554688 6.390625 -7.828125 5.421875 -7.828125 L 3.375 -7.828125 L 3.375 -1.828125 Z M 5.421875 -1.828125 "/></g></g><g style="fill:#ffffff;fill-opacity:1;"><g transform="translate(166.496198, 192.336139)"><path style="stroke:none" d="M 8.625 -1.796875 L 8.625 0 L 1.140625 0 L 1.140625 -9.65625 L 8.4375 -9.65625 L 8.4375 -7.859375 L 3.359375 -7.859375 L 3.359375 -5.765625 L 7.84375 -5.765625 L 7.84375 -4.03125 L 3.359375 -4.03125 L 3.359375 -1.796875 Z M 8.625 -1.796875 "/></g></g><g style="fill:#ffffff;fill-opacity:1;"><g transform="translate(180.527489, 192.336139)"><path style="stroke:none" d=""/></g></g><g style="fill:#ffffff;fill-opacity:1;"><g transform="translate(189.207099, 192.336139)"><path style="stroke:none" d="M 1.140625 -9.65625 L 3.375 -9.65625 L 3.375 -1.828125 L 8.21875 -1.828125 L 8.21875 0 L 1.140625 0 Z M 1.140625 -9.65625 "/></g></g><g style="fill:#ffffff;fill-opacity:1;"><g transform="translate(202.314257, 192.336139)"><path style="stroke:none" d="M 7.5 -2.0625 L 3.015625 -2.0625 L 2.171875 0 L -0.125 0 L 4.1875 -9.65625 L 6.390625 -9.65625 L 10.703125 0 L 8.359375 0 Z M 6.796875 -3.765625 L 5.265625 -7.46875 L 3.734375 -3.765625 Z M 6.796875 -3.765625 "/></g></g><g style="fill:#ffffff;fill-opacity:1;"><g transform="translate(217.655885, 192.336139)"><path style="stroke:none" d=""/></g></g><g style="fill:#ffffff;fill-opacity:1;"><g transform="translate(226.335496, 192.336139)"><path style="stroke:none" d="M 5.765625 0.171875 C 4.785156 0.171875 3.894531 -0.0390625 3.09375 -0.46875 C 2.300781 -0.90625 1.675781 -1.5 1.21875 -2.25 C 0.757812 -3.007812 0.53125 -3.867188 0.53125 -4.828125 C 0.53125 -5.785156 0.757812 -6.644531 1.21875 -7.40625 C 1.675781 -8.164062 2.300781 -8.757812 3.09375 -9.1875 C 3.894531 -9.613281 4.789062 -9.828125 5.78125 -9.828125 C 6.613281 -9.828125 7.367188 -9.675781 8.046875 -9.375 C 8.722656 -9.082031 9.289062 -8.660156 9.75 -8.109375 L 8.3125 -6.78125 C 7.664062 -7.539062 6.859375 -7.921875 5.890625 -7.921875 C 5.296875 -7.921875 4.765625 -7.789062 4.296875 -7.53125 C 3.828125 -7.269531 3.457031 -6.898438 3.1875 -6.421875 C 2.925781 -5.953125 2.796875 -5.421875 2.796875 -4.828125 C 2.796875 -4.234375 2.925781 -3.703125 3.1875 -3.234375 C 3.457031 -2.765625 3.828125 -2.394531 4.296875 -2.125 C 4.765625 -1.863281 5.296875 -1.734375 5.890625 -1.734375 C 6.859375 -1.734375 7.664062 -2.117188 8.3125 -2.890625 L 9.75 -1.5625 C 9.289062 -1 8.71875 -0.566406 8.03125 -0.265625 C 7.351562 0.0234375 6.597656 0.171875 5.765625 0.171875 Z M 5.765625 0.171875 "/></g></g><g style="fill:#ffffff;fill-opacity:1;"><g transform="translate(241.221946, 192.336139)"><path style="stroke:none" d="M 7.5 -2.0625 L 3.015625 -2.0625 L 2.171875 0 L -0.125 0 L 4.1875 -9.65625 L 6.390625 -9.65625 L 10.703125 0 L 8.359375 0 Z M 6.796875 -3.765625 L 5.265625 -7.46875 L 3.734375 -3.765625 Z M 6.796875 -3.765625 "/></g></g><g style="fill:#ffffff;fill-opacity:1;"><g transform="translate(256.563563, 192.336139)"><path style="stroke:none" d="M 9.9375 0 L 9.921875 -5.796875 L 7.078125 -1.015625 L 6.078125 -1.015625 L 3.25 -5.671875 L 3.25 0 L 1.140625 0 L 1.140625 -9.65625 L 3 -9.65625 L 6.609375 -3.65625 L 10.171875 -9.65625 L 12 -9.65625 L 12.03125 0 Z M 9.9375 0 "/></g></g><g style="fill:#ffffff;fill-opacity:1;"><g transform="translate(274.512063, 192.336139)"><path style="stroke:none" d="M 7.5 -2.0625 L 3.015625 -2.0625 L 2.171875 0 L -0.125 0 L 4.1875 -9.65625 L 6.390625 -9.65625 L 10.703125 0 L 8.359375 0 Z M 6.796875 -3.765625 L 5.265625 -7.46875 L 3.734375 -3.765625 Z M 6.796875 -3.765625 "/></g></g><g style="fill:#ffffff;fill-opacity:1;"><g transform="translate(289.853691, 192.336139)"><path style="stroke:none" d="M 7.296875 0 L 5.4375 -2.6875 L 3.375 -2.6875 L 3.375 0 L 1.140625 0 L 1.140625 -9.65625 L 5.328125 -9.65625 C 6.179688 -9.65625 6.921875 -9.507812 7.546875 -9.21875 C 8.179688 -8.9375 8.664062 -8.535156 9 -8.015625 C 9.34375 -7.492188 9.515625 -6.875 9.515625 -6.15625 C 9.515625 -5.4375 9.34375 -4.816406 9 -4.296875 C 8.65625 -3.773438 8.164062 -3.378906 7.53125 -3.109375 L 9.703125 0 Z M 7.25 -6.15625 C 7.25 -6.695312 7.070312 -7.113281 6.71875 -7.40625 C 6.375 -7.695312 5.867188 -7.84375 5.203125 -7.84375 L 3.375 -7.84375 L 3.375 -4.46875 L 5.203125 -4.46875 C 5.867188 -4.46875 6.375 -4.613281 6.71875 -4.90625 C 7.070312 -5.207031 7.25 -5.625 7.25 -6.15625 Z M 7.25 -6.15625 "/></g></g><g style="fill:#ffffff;fill-opacity:1;"><g transform="translate(304.767744, 192.336139)"><path style="stroke:none" d="M 7.5 -2.0625 L 3.015625 -2.0625 L 2.171875 0 L -0.125 0 L 4.1875 -9.65625 L 6.390625 -9.65625 L 10.703125 0 L 8.359375 0 Z M 6.796875 -3.765625 L 5.265625 -7.46875 L 3.734375 -3.765625 Z M 6.796875 -3.765625 "/></g></g></g></svg>